<svg id="Layer_1" enable-background="new 0 0 512 512" height="512" viewBox="0 0 512 512" width="512" xmlns="http://www.w3.org/2000/svg"><g id="XMLID_1690_"><g id="XMLID_1140_"><path id="XMLID_1399_" d="m408 132c0-24.964-18.391-45.713-42.336-49.412l-15.342-52.391c-5.207-17.78-21.781-30.197-40.308-30.197h-108.028c-18.526 0-35.101 12.417-40.308 30.196l-15.342 52.392c-23.945 3.699-42.336 24.448-42.336 49.412v248c0 24.964 18.391 45.713 42.336 49.412l15.342 52.391c5.207 17.78 21.781 30.197 40.308 30.197h108.028c18.526 0 35.101-12.417 40.308-30.196l15.342-52.392c23.945-3.699 42.336-24.448 42.336-49.412v-78.937c0-5.523-4.477-10-10-10s-10 4.477-10 10v78.937c0 16.542-13.458 30-30 30h-204c-16.542 0-30-13.458-30-30v-248c0-16.542 13.458-30 30-30h204c16.542 0 30 13.458 30 30v79.063c0 5.523 4.477 10 10 10s10-4.477 10-10zm-63.348 298-13.524 46.183c-2.728 9.313-11.41 15.817-21.114 15.817h-108.028c-9.704 0-18.386-6.504-21.113-15.817l-13.525-46.183zm-177.304-348 13.524-46.183c2.728-9.313 11.41-15.817 21.114-15.817h108.028c9.704 0 18.386 6.504 21.113 15.817l13.525 46.183z"/><path id="XMLID_1514_" d="m144 256c0 5.523 4.477 10 10 10h9.817c8.381 13.66 21.191 28.495 38.392 44.407 23.776 21.995 47.183 37.978 48.168 38.648 1.697 1.154 3.66 1.73 5.623 1.73s3.926-.577 5.623-1.73c.985-.67 24.392-16.653 48.168-38.648 17.201-15.912 30.011-30.747 38.392-44.407h9.817c5.523 0 10-4.477 10-10s-4.477-10-10-10h-.45c1.63-5.298 2.45-10.373 2.45-15.216 0-38.361-28.911-69.57-64.447-69.57-14.363 0-28.319 5.244-39.553 14.646-11.234-9.402-25.189-14.646-39.553-14.646-35.536 0-64.447 31.209-64.447 69.57 0 4.843.82 9.918 2.45 15.216h-.45c-5.523 0-10 4.477-10 10zm152.379 39.569c-15.962 14.786-32.122 26.978-40.379 32.962-8.258-5.984-24.417-18.176-40.379-32.962-11.267-10.437-20.501-20.383-27.529-29.569h35.408c3.94 0 7.513-2.314 9.125-5.91l2.14-4.773 11.806 38.295c1.167 3.787 4.461 6.528 8.397 6.987.389.045.776.068 1.161.068 3.515 0 6.81-1.854 8.619-4.934l17.474-29.733h41.686c-7.028 9.186-16.262 19.132-27.529 29.569zm-124.379-64.785c0-27.333 19.939-49.57 44.447-49.57 12.164 0 23.525 5.39 31.989 15.176 1.899 2.196 4.66 3.458 7.563 3.458s5.664-1.262 7.563-3.458c8.464-9.787 19.825-15.176 31.989-15.176 24.508 0 44.447 22.237 44.447 49.57 0 4.506-1.279 9.613-3.757 15.216h-59.741c-3.545 0-6.825 1.877-8.622 4.933l-8.878 15.108-12.944-41.987c-1.227-3.979-4.789-6.781-8.945-7.036-4.153-.255-8.034 2.092-9.736 5.891l-10.351 23.091h-41.267c-2.478-5.603-3.757-10.71-3.757-15.216z"/><path id="XMLID_1516_" d="m397.94 246.06c-2.63 0-5.21 1.07-7.07 2.93-1.87 1.87-2.93 4.44-2.93 7.07 0 2.64 1.06 5.21 2.93 7.07 1.86 1.87 4.43 2.93 7.07 2.93 2.63 0 5.21-1.06 7.07-2.93 1.86-1.86 2.93-4.43 2.93-7.07 0-2.63-1.07-5.21-2.93-7.07s-4.44-2.93-7.07-2.93z"/></g></g></svg>