<?xml version="1.0" encoding="iso-8859-1"?>
<!-- Generator: Adobe Illustrator 19.0.0, SVG Export Plug-In . SVG Version: 6.00 Build 0)  -->
<svg version="1.1" id="Capa_1" xmlns="http://www.w3.org/2000/svg" xmlns:xlink="http://www.w3.org/1999/xlink" x="0px" y="0px"
	 viewBox="0 0 512.001 512.001" style="enable-background:new 0 0 512.001 512.001;" xml:space="preserve">
<g>
	<g>
		<path fill="#f04923"   d="M266.281,292.371c-1.86-1.86-4.431-2.93-7.07-2.93c-2.63,0-5.21,1.07-7.07,2.93c-1.859,1.86-2.93,4.44-2.93,7.07
			s1.07,5.21,2.93,7.07c1.86,1.86,4.44,2.93,7.07,2.93s5.21-1.07,7.07-2.93c1.859-1.86,2.93-4.44,2.93-7.07
			S268.141,294.23,266.281,292.371z"/>
	</g>
</g>
<g>
	<g>
		<path fill="#f04923"  d="M198.131,407.954c-3.905-3.905-10.235-3.905-14.143,0l-3.686,3.686l-8.764-8.764c7.811-11.727,12.375-25.793,12.375-40.91
			c0-40.804-33.196-74-74-74c-40.804,0-74,33.196-74,74s33.196,74,74,74c18.479,0,35.384-6.824,48.365-18.064l7.881,7.881
			l-3.687,3.686c-3.905,3.905-3.905,10.237,0.001,14.142c1.953,1.953,4.512,2.929,7.071,2.929s5.118-0.977,7.071-2.929
			l21.516-21.515C202.036,418.191,202.036,411.86,198.131,407.954z M157.006,388.345l-19.866-19.866
			c0.5-2.091,0.773-4.27,0.773-6.512c0-15.439-12.561-28-28-28c-15.439,0-28,12.561-28,28c0,15.439,12.561,28,28,28
			c5.789,0,11.173-1.766,15.643-4.787l18.549,18.549c-9.319,7.643-21.228,12.238-34.192,12.238c-29.775,0-54-24.224-54-54
			s24.225-54,54-54c29.775,0,54,24.224,54,54C163.913,371.543,161.396,380.538,157.006,388.345z M117.913,361.967
			c0,4.411-3.589,8-8,8c-4.411,0-8-3.589-8-8s3.589-8,8-8S117.913,357.556,117.913,361.967z"/>
	</g>
</g>
<g>
	<g>
		<path fill="#f04923"  d="M502.001,0.001c-5.522,0-10,4.477-10,10v40.342l-34,34V52.431l1.214-1.214c11.695-11.697,11.695-30.729,0-42.426
			c-11.697-11.697-30.73-11.697-42.428,0l-58.081,58.081c-11.696,11.697-11.696,30.729,0,42.427
			c5.118,5.117,11.639,7.996,18.336,8.635L390,130.892v12.608h-35.954c-5.522,0-10,4.477-10,10s4.478,10,10,10H390v70.023
			l-59.256,75.261l-27.696-7.634c-5.327-1.468-10.83,1.659-12.298,6.983c-1.468,5.324,1.659,10.83,6.983,12.298l102.184,28.164
			c0.152,0.052,0.307,0.101,0.462,0.146c3.292,0.949,6.433,2.215,9.405,3.746c0.154,0.083,0.311,0.162,0.471,0.238
			c16.993,8.972,28.175,26.888,28.175,46.61c0,29.04-23.625,52.666-52.665,52.666c-0.171,0-0.339-0.008-0.508-0.014l-0.642-0.019
			c-0.072-0.001-0.144-0.002-0.215-0.002H110c-24.04,0-46.641-9.361-63.639-26.36C29.362,408.608,20,386.007,20,361.967
			c0-24.04,9.362-46.641,26.361-63.64c24.01-24.01,59.016-32.445,91.362-22.006c0.137,0.044,0.274,0.085,0.413,0.124l75.637,20.847
			l0.022-0.079c0.682,0.147,1.38,0.229,2.082,0.229c2.63,0,5.21-1.07,7.07-2.93c1.859-1.86,2.93-4.44,2.93-7.07
			s-1.07-5.21-2.93-7.07c-1.448-1.447-3.326-2.407-5.331-2.766l-73.963-20.386c-12.405-3.976-25.127-5.678-37.652-5.239v-25.98h14
			c16.542,0,30-13.458,30-30s-13.458-30-30-30h-80c-16.542,0-30,13.458-30,30s13.458,30,30,30h14v41.254
			c-7.817,4.642-15.146,10.294-21.782,16.93C11.442,304.96,0,332.585,0,361.967c0,29.382,11.442,57.006,32.219,77.782
			c6.548,6.548,13.777,12.167,21.526,16.794c-0.118,0.181-0.239,0.358-0.347,0.548l-19.677,34.91h-23.72c-5.522,0-10,4.477-10,10
			s4.478,10,10,10h150.987c5.522,0,10-4.477,10-10s-4.478-10-10-10h-19.654v-20.035h175.322v20.035h-19.654c-5.522,0-10,4.477-10,10
			s4.478,10,10,10h150.987c5.522,0,10-4.477,10-10s-4.478-10-10-10h-23.72l-13.727-24.354c27.905-10.153,47.889-36.94,47.889-68.311
			c0-24.273-12.284-46.556-31.579-59.875l30.49-79.762c0.436-1.14,0.659-2.35,0.659-3.571v-143.5l51.071-51.071
			c1.875-1.875,2.929-4.419,2.929-7.071V10.001C512.001,4.479,507.523,0.001,502.001,0.001z M86.001,254.553
			c-4.059,0.907-8.066,2.038-12,3.403v-31.956h12V254.553z M40.001,206.001c-5.514,0-10-4.485-10-10c0-5.514,4.486-10,10-10h80
			c5.514,0,10,4.486,10,10c0,5.514-4.486,10-10,10h-24h-32H40.001z M121.334,492.001H56.68l14.143-25.09
			c0.33-0.585,0.592-1.19,0.793-1.805c12.119,4.503,25.07,6.86,38.384,6.86h11.334V492.001z M336.657,492.001v-20.035h47.607
			l0.312,0.01c0.396,0.013,0.791,0.025,1.19,0.025c1.41,0,2.808-0.05,4.198-0.13l11.347,20.13H336.657z M438.001,254.283
			l-29.119,76.175c-0.775-0.26-1.552-0.516-2.34-0.751c-0.239-0.086-0.483-0.164-0.732-0.232l-54.149-14.924l56.197-71.375
			c1.389-1.763,2.144-3.942,2.144-6.186v-73.489h3.526c5.522,0,10-4.477,10-10s-4.478-10-10-10h-3.526v-16.75
			c0-2.652-1.054-5.196-2.929-7.071l-8.277-8.277c0.806-0.654,1.587-1.354,2.337-2.104l36.868-36.868v31.911l-10.58,10.58
			c-3.905,3.905-3.905,10.237,0,14.143c1.953,1.953,4.512,2.929,7.071,2.929c1.191,0,2.379-0.221,3.509-0.643V254.283z
			 M445.072,37.074L386.99,95.157c-3.898,3.901-10.243,3.899-14.142,0s-3.899-10.242,0.001-14.142l58.081-58.081
			c1.949-1.95,4.511-2.925,7.071-2.925c2.56,0,5.122,0.975,7.071,2.924C448.97,26.832,448.97,33.177,445.072,37.074z"/>
	</g>
</g>
<g>
	<g>
		<path fill="#f04923"  d="M394.907,368.133c-5.311-1.53-10.85,1.532-12.379,6.839c-1.53,5.307,1.531,10.849,6.838,12.378
			c5.648,1.629,9.594,6.875,9.594,12.759c0,7.324-5.958,13.282-13.281,13.282h-43.644c-5.522,0-10,4.477-10,10s4.478,10,10,10
			h43.644c18.352,0,33.281-14.93,33.281-33.282C418.96,385.366,409.069,372.216,394.907,368.133z"/>
	</g>
</g>
<g>
	<g>
		<path fill="#f04923" d="M310.57,416.32c-1.859-1.86-4.439-2.93-7.069-2.93s-5.21,1.07-7.07,2.93c-1.86,1.86-2.93,4.44-2.93,7.07
			c0,2.64,1.069,5.21,2.93,7.07c1.86,1.86,4.44,2.93,7.07,2.93s5.21-1.07,7.069-2.93c1.86-1.86,2.931-4.44,2.931-7.07
			S312.431,418.181,310.57,416.32z"/>
	</g>
</g>
<g>
</g>
<g>
</g>
<g>
</g>
<g>
</g>
<g>
</g>
<g>
</g>
<g>
</g>
<g>
</g>
<g>
</g>
<g>
</g>
<g>
</g>
<g>
</g>
<g>
</g>
<g>
</g>
<g>
</g>
</svg>
